<?xml version="1.0" encoding="UTF-8" standalone="no"?>
<svg
   xmlns:dc="http://purl.org/dc/elements/1.1/"
   xmlns:cc="http://creativecommons.org/ns#"
   xmlns:rdf="http://www.w3.org/1999/02/22-rdf-syntax-ns#"
   xmlns:svg="http://www.w3.org/2000/svg"
   xmlns="http://www.w3.org/2000/svg"
   width="640"
   height="160"
   viewBox="0 0 169.33334 42.333332"
   version="1.1"
   id="svg8">
  <defs
     id="defs2">
    <rect
       x="5.6696429"
       y="6.0476191"
       width="154.97024"
       height="27.970238"
       id="rect12" />
  </defs>
  <metadata
     id="metadata5">
    <rdf:RDF>
      <cc:Work
         rdf:about="">
        <dc:format>image/svg+xml</dc:format>
        <dc:type
           rdf:resource="http://purl.org/dc/dcmitype/StillImage" />
        <dc:title></dc:title>
      </cc:Work>
    </rdf:RDF>
  </metadata>
  <g
     id="layer1">
    <text
       xml:space="preserve"
       id="text10"
       style="font-style:normal;font-weight:normal;font-size:10.58329999999999949px;line-height:1.05;font-family:sans-serif;white-space:pre;shape-inside:url(#rect12);fill:#000000;fill-opacity:1;stroke:none;"
       transform="matrix(2.0007623,0,0,2.0007623,27.477779,-11.039814)"><tspan
         x="5.6699219"
         y="14.715587"><tspan
           style="font-style:normal;font-variant:normal;font-weight:bold;font-stretch:normal;font-family:Montserrat;-inkscape-font-specification:'Montserrat Bold'">GEO
</tspan></tspan><tspan
         x="5.6699219"
         y="25.899627"><tspan
           style="font-style:normal;font-variant:normal;font-weight:bold;font-stretch:normal;font-family:Montserrat;-inkscape-font-specification:'Montserrat Bold'">DATASETS</tspan></tspan></text>
    <g
       style="fill:#000000"
       id="g30"
       transform="matrix(1.618998,0,0,1.618998,1.7386905,2.1166663)">
      <path
         d="M 0,0 H 24 V 24 H 0 Z"
         fill="none"
         id="path16" />
      <path
         d="M 12,2 C 8.13,2 5,5.13 5,9 c 0,5.25 7,13 7,13 0,0 7,-7.75 7,-13 0,-3.87 -3.13,-7 -7,-7 z m 0,9.5 C 10.62,11.5 9.5,10.38 9.5,9 9.5,7.62 10.62,6.5 12,6.5 c 1.38,0 2.5,1.12 2.5,2.5 0,1.38 -1.12,2.5 -2.5,2.5 z"
         id="path18" />
    </g>
  </g>
</svg>
